<mxfile host="app.diagrams.net" modified="2021-12-19T20:14:52.305Z" agent="5.0 (Windows NT 10.0; Win64; x64) AppleWebKit/537.36 (KHTML, like Gecko) Chrome/96.0.4664.110 Safari/537.36" etag="H4oX4grbAeDbHp8fi6Fe" version="16.0.0" type="github">
  <diagram id="C5RBs43oDa-KdzZeNtuy" name="Page-1">
    <mxGraphModel dx="771" dy="2015" grid="1" gridSize="10" guides="1" tooltips="1" connect="1" arrows="1" fold="1" page="1" pageScale="1" pageWidth="827" pageHeight="1169" math="0" shadow="0">
      <root>
        <mxCell id="WIyWlLk6GJQsqaUBKTNV-0" />
        <mxCell id="WIyWlLk6GJQsqaUBKTNV-1" parent="WIyWlLk6GJQsqaUBKTNV-0" />
        <mxCell id="ERIA8RnwAWH08utB1RJZ-87" style="edgeStyle=orthogonalEdgeStyle;rounded=0;orthogonalLoop=1;jettySize=auto;html=1;fontSize=13;strokeWidth=3;" edge="1" parent="WIyWlLk6GJQsqaUBKTNV-1" source="ERIA8RnwAWH08utB1RJZ-1" target="ERIA8RnwAWH08utB1RJZ-86">
          <mxGeometry relative="1" as="geometry" />
        </mxCell>
        <mxCell id="ERIA8RnwAWH08utB1RJZ-1" value="&lt;b&gt;CadastrarEvento&lt;/b&gt;" style="ellipse;whiteSpace=wrap;html=1;strokeWidth=2;" vertex="1" parent="WIyWlLk6GJQsqaUBKTNV-1">
          <mxGeometry x="135" y="-240" width="200" height="70" as="geometry" />
        </mxCell>
        <mxCell id="ERIA8RnwAWH08utB1RJZ-18" style="edgeStyle=orthogonalEdgeStyle;rounded=0;orthogonalLoop=1;jettySize=auto;html=1;fontSize=13;strokeWidth=3;" edge="1" parent="WIyWlLk6GJQsqaUBKTNV-1" source="ERIA8RnwAWH08utB1RJZ-12" target="ERIA8RnwAWH08utB1RJZ-17">
          <mxGeometry relative="1" as="geometry" />
        </mxCell>
        <mxCell id="ERIA8RnwAWH08utB1RJZ-12" value="&amp;nbsp; Digite a Data desejada:" style="shape=display;whiteSpace=wrap;html=1;fontSize=13;strokeWidth=2;" vertex="1" parent="WIyWlLk6GJQsqaUBKTNV-1">
          <mxGeometry x="130" y="150" width="220" height="70" as="geometry" />
        </mxCell>
        <mxCell id="ERIA8RnwAWH08utB1RJZ-29" style="edgeStyle=orthogonalEdgeStyle;rounded=0;orthogonalLoop=1;jettySize=auto;html=1;fontSize=13;strokeWidth=3;" edge="1" parent="WIyWlLk6GJQsqaUBKTNV-1" source="ERIA8RnwAWH08utB1RJZ-15" target="ERIA8RnwAWH08utB1RJZ-28">
          <mxGeometry relative="1" as="geometry">
            <Array as="points">
              <mxPoint x="240" y="530" />
              <mxPoint x="240" y="530" />
            </Array>
          </mxGeometry>
        </mxCell>
        <mxCell id="ERIA8RnwAWH08utB1RJZ-64" style="edgeStyle=orthogonalEdgeStyle;rounded=0;orthogonalLoop=1;jettySize=auto;html=1;entryX=0;entryY=0;entryDx=118.75;entryDy=75;entryPerimeter=0;fontSize=13;strokeWidth=3;" edge="1" parent="WIyWlLk6GJQsqaUBKTNV-1" source="ERIA8RnwAWH08utB1RJZ-15" target="ERIA8RnwAWH08utB1RJZ-23">
          <mxGeometry relative="1" as="geometry" />
        </mxCell>
        <mxCell id="ERIA8RnwAWH08utB1RJZ-65" value="Não" style="edgeLabel;html=1;align=center;verticalAlign=middle;resizable=0;points=[];fontSize=13;" vertex="1" connectable="0" parent="ERIA8RnwAWH08utB1RJZ-64">
          <mxGeometry x="0.0595" y="3" relative="1" as="geometry">
            <mxPoint x="-19" y="-17" as="offset" />
          </mxGeometry>
        </mxCell>
        <mxCell id="ERIA8RnwAWH08utB1RJZ-15" value="Verificar se a data é posterior a data atual." style="rhombus;whiteSpace=wrap;html=1;fontSize=13;strokeWidth=2;" vertex="1" parent="WIyWlLk6GJQsqaUBKTNV-1">
          <mxGeometry x="160" y="400" width="160" height="120" as="geometry" />
        </mxCell>
        <mxCell id="ERIA8RnwAWH08utB1RJZ-19" style="edgeStyle=orthogonalEdgeStyle;rounded=0;orthogonalLoop=1;jettySize=auto;html=1;entryX=0.5;entryY=0;entryDx=0;entryDy=0;fontSize=13;strokeWidth=3;" edge="1" parent="WIyWlLk6GJQsqaUBKTNV-1" source="ERIA8RnwAWH08utB1RJZ-17" target="ERIA8RnwAWH08utB1RJZ-15">
          <mxGeometry relative="1" as="geometry" />
        </mxCell>
        <mxCell id="ERIA8RnwAWH08utB1RJZ-17" value="Data" style="shape=manualInput;whiteSpace=wrap;html=1;fontSize=13;strokeWidth=2;" vertex="1" parent="WIyWlLk6GJQsqaUBKTNV-1">
          <mxGeometry x="165" y="270" width="150" height="80" as="geometry" />
        </mxCell>
        <mxCell id="ERIA8RnwAWH08utB1RJZ-26" style="edgeStyle=orthogonalEdgeStyle;rounded=0;orthogonalLoop=1;jettySize=auto;html=1;entryX=1;entryY=0.5;entryDx=0;entryDy=0;fontSize=13;strokeWidth=3;" edge="1" parent="WIyWlLk6GJQsqaUBKTNV-1" source="ERIA8RnwAWH08utB1RJZ-23" target="ERIA8RnwAWH08utB1RJZ-17">
          <mxGeometry relative="1" as="geometry" />
        </mxCell>
        <mxCell id="ERIA8RnwAWH08utB1RJZ-23" value="Data Inválida, Digite uma Data posterior a data de hoje." style="shape=display;whiteSpace=wrap;html=1;fontSize=13;strokeWidth=2;" vertex="1" parent="WIyWlLk6GJQsqaUBKTNV-1">
          <mxGeometry x="370" y="272.5" width="220" height="75" as="geometry" />
        </mxCell>
        <mxCell id="ERIA8RnwAWH08utB1RJZ-32" style="edgeStyle=orthogonalEdgeStyle;rounded=0;orthogonalLoop=1;jettySize=auto;html=1;fontSize=13;strokeWidth=3;" edge="1" parent="WIyWlLk6GJQsqaUBKTNV-1" source="ERIA8RnwAWH08utB1RJZ-28" target="ERIA8RnwAWH08utB1RJZ-31">
          <mxGeometry relative="1" as="geometry">
            <Array as="points">
              <mxPoint x="240" y="670" />
              <mxPoint x="240" y="670" />
            </Array>
          </mxGeometry>
        </mxCell>
        <mxCell id="ERIA8RnwAWH08utB1RJZ-28" value="Digite a idade do participante:" style="shape=display;whiteSpace=wrap;html=1;fontSize=13;strokeWidth=2;" vertex="1" parent="WIyWlLk6GJQsqaUBKTNV-1">
          <mxGeometry x="130" y="590" width="220" height="70" as="geometry" />
        </mxCell>
        <mxCell id="ERIA8RnwAWH08utB1RJZ-35" style="edgeStyle=orthogonalEdgeStyle;rounded=0;orthogonalLoop=1;jettySize=auto;html=1;entryX=0.5;entryY=0;entryDx=0;entryDy=0;fontSize=13;strokeWidth=3;" edge="1" parent="WIyWlLk6GJQsqaUBKTNV-1" source="ERIA8RnwAWH08utB1RJZ-31" target="ERIA8RnwAWH08utB1RJZ-34">
          <mxGeometry relative="1" as="geometry" />
        </mxCell>
        <mxCell id="ERIA8RnwAWH08utB1RJZ-31" value="Idade" style="shape=manualInput;whiteSpace=wrap;html=1;fontSize=13;strokeWidth=2;" vertex="1" parent="WIyWlLk6GJQsqaUBKTNV-1">
          <mxGeometry x="165" y="720" width="150" height="80" as="geometry" />
        </mxCell>
        <mxCell id="ERIA8RnwAWH08utB1RJZ-52" style="edgeStyle=orthogonalEdgeStyle;rounded=0;orthogonalLoop=1;jettySize=auto;html=1;fontSize=13;strokeWidth=3;" edge="1" parent="WIyWlLk6GJQsqaUBKTNV-1" source="ERIA8RnwAWH08utB1RJZ-34" target="ERIA8RnwAWH08utB1RJZ-54">
          <mxGeometry relative="1" as="geometry">
            <mxPoint x="240" y="1020" as="targetPoint" />
          </mxGeometry>
        </mxCell>
        <mxCell id="ERIA8RnwAWH08utB1RJZ-77" style="edgeStyle=orthogonalEdgeStyle;rounded=0;orthogonalLoop=1;jettySize=auto;html=1;fontSize=13;strokeWidth=3;" edge="1" parent="WIyWlLk6GJQsqaUBKTNV-1" source="ERIA8RnwAWH08utB1RJZ-34" target="ERIA8RnwAWH08utB1RJZ-76">
          <mxGeometry relative="1" as="geometry" />
        </mxCell>
        <mxCell id="ERIA8RnwAWH08utB1RJZ-34" value="&lt;br&gt;Verficar se a idade é maior que 18 anos" style="rhombus;whiteSpace=wrap;html=1;fontSize=13;strokeWidth=2;" vertex="1" parent="WIyWlLk6GJQsqaUBKTNV-1">
          <mxGeometry x="130" y="840" width="220" height="140" as="geometry" />
        </mxCell>
        <mxCell id="ERIA8RnwAWH08utB1RJZ-43" value="Sim" style="edgeLabel;html=1;align=center;verticalAlign=middle;resizable=0;points=[];fontSize=13;" vertex="1" connectable="0" parent="WIyWlLk6GJQsqaUBKTNV-1">
          <mxGeometry x="400" y="910" as="geometry">
            <mxPoint x="-143" y="-223" as="offset" />
          </mxGeometry>
        </mxCell>
        <mxCell id="ERIA8RnwAWH08utB1RJZ-58" style="edgeStyle=orthogonalEdgeStyle;rounded=0;orthogonalLoop=1;jettySize=auto;html=1;fontSize=13;strokeWidth=3;" edge="1" parent="WIyWlLk6GJQsqaUBKTNV-1" source="ERIA8RnwAWH08utB1RJZ-54" target="ERIA8RnwAWH08utB1RJZ-57">
          <mxGeometry relative="1" as="geometry" />
        </mxCell>
        <mxCell id="ERIA8RnwAWH08utB1RJZ-54" value="&lt;p style=&quot;line-height: 1&quot;&gt;Listar Palestrantes e Palestrantes por evento&lt;/p&gt;" style="shape=display;whiteSpace=wrap;html=1;fontSize=13;strokeWidth=2;" vertex="1" parent="WIyWlLk6GJQsqaUBKTNV-1">
          <mxGeometry x="110" y="1030" width="260" height="90" as="geometry" />
        </mxCell>
        <mxCell id="ERIA8RnwAWH08utB1RJZ-75" style="edgeStyle=orthogonalEdgeStyle;rounded=0;orthogonalLoop=1;jettySize=auto;html=1;fontSize=13;strokeWidth=3;" edge="1" parent="WIyWlLk6GJQsqaUBKTNV-1" source="ERIA8RnwAWH08utB1RJZ-57" target="ERIA8RnwAWH08utB1RJZ-74">
          <mxGeometry relative="1" as="geometry" />
        </mxCell>
        <mxCell id="ERIA8RnwAWH08utB1RJZ-82" style="edgeStyle=orthogonalEdgeStyle;rounded=0;orthogonalLoop=1;jettySize=auto;html=1;fontSize=13;strokeWidth=3;" edge="1" parent="WIyWlLk6GJQsqaUBKTNV-1" source="ERIA8RnwAWH08utB1RJZ-57" target="ERIA8RnwAWH08utB1RJZ-83">
          <mxGeometry relative="1" as="geometry">
            <mxPoint x="240" y="1450" as="targetPoint" />
          </mxGeometry>
        </mxCell>
        <mxCell id="ERIA8RnwAWH08utB1RJZ-57" value="&lt;br&gt;Verficiar se o número de participantes é menor que 100" style="rhombus;whiteSpace=wrap;html=1;fontSize=13;strokeWidth=2;" vertex="1" parent="WIyWlLk6GJQsqaUBKTNV-1">
          <mxGeometry x="108.75" y="1180" width="262.5" height="190" as="geometry" />
        </mxCell>
        <mxCell id="ERIA8RnwAWH08utB1RJZ-59" value="Fim" style="ellipse;whiteSpace=wrap;html=1;fontSize=13;strokeWidth=2;" vertex="1" parent="WIyWlLk6GJQsqaUBKTNV-1">
          <mxGeometry x="490" y="1015" width="180" height="120" as="geometry" />
        </mxCell>
        <mxCell id="ERIA8RnwAWH08utB1RJZ-63" value="Sim" style="text;html=1;align=center;verticalAlign=middle;resizable=0;points=[];autosize=1;strokeColor=none;fillColor=none;fontSize=13;" vertex="1" parent="WIyWlLk6GJQsqaUBKTNV-1">
          <mxGeometry x="250" y="990" width="40" height="20" as="geometry" />
        </mxCell>
        <mxCell id="ERIA8RnwAWH08utB1RJZ-73" value="Não" style="edgeLabel;html=1;align=center;verticalAlign=middle;resizable=0;points=[];fontSize=13;" vertex="1" connectable="0" parent="WIyWlLk6GJQsqaUBKTNV-1">
          <mxGeometry x="411.47058823529414" y="890" as="geometry" />
        </mxCell>
        <mxCell id="ERIA8RnwAWH08utB1RJZ-78" style="edgeStyle=orthogonalEdgeStyle;rounded=0;orthogonalLoop=1;jettySize=auto;html=1;fontSize=13;strokeWidth=3;" edge="1" parent="WIyWlLk6GJQsqaUBKTNV-1" source="ERIA8RnwAWH08utB1RJZ-74" target="ERIA8RnwAWH08utB1RJZ-59">
          <mxGeometry relative="1" as="geometry" />
        </mxCell>
        <mxCell id="ERIA8RnwAWH08utB1RJZ-74" value="&lt;p style=&quot;line-height: 1&quot;&gt;&lt;br&gt;&lt;/p&gt;&lt;p style=&quot;line-height: 1&quot;&gt;O cadastro não pode ser concluído, o número máximo de participantes foi excedido.&lt;br&gt;&lt;/p&gt;" style="shape=display;whiteSpace=wrap;html=1;fontSize=13;strokeWidth=2;" vertex="1" parent="WIyWlLk6GJQsqaUBKTNV-1">
          <mxGeometry x="450" y="1230.5" width="260" height="89" as="geometry" />
        </mxCell>
        <mxCell id="ERIA8RnwAWH08utB1RJZ-79" style="edgeStyle=orthogonalEdgeStyle;rounded=0;orthogonalLoop=1;jettySize=auto;html=1;fontSize=13;strokeWidth=3;" edge="1" parent="WIyWlLk6GJQsqaUBKTNV-1" source="ERIA8RnwAWH08utB1RJZ-76" target="ERIA8RnwAWH08utB1RJZ-59">
          <mxGeometry relative="1" as="geometry" />
        </mxCell>
        <mxCell id="ERIA8RnwAWH08utB1RJZ-76" value="&lt;p style=&quot;line-height: 1&quot;&gt;Cadastro não autorizado, o participante deve possuir idade superior a 18 anos.&lt;br&gt;&lt;/p&gt;" style="shape=display;whiteSpace=wrap;html=1;fontSize=13;strokeWidth=2;" vertex="1" parent="WIyWlLk6GJQsqaUBKTNV-1">
          <mxGeometry x="450" y="865" width="260" height="90" as="geometry" />
        </mxCell>
        <mxCell id="ERIA8RnwAWH08utB1RJZ-80" value="Não" style="edgeLabel;html=1;align=center;verticalAlign=middle;resizable=0;points=[];fontSize=13;" vertex="1" connectable="0" parent="WIyWlLk6GJQsqaUBKTNV-1">
          <mxGeometry x="421.47058823529414" y="900" as="geometry">
            <mxPoint x="-10" y="350" as="offset" />
          </mxGeometry>
        </mxCell>
        <mxCell id="ERIA8RnwAWH08utB1RJZ-96" style="edgeStyle=orthogonalEdgeStyle;rounded=0;orthogonalLoop=1;jettySize=auto;html=1;fontSize=13;strokeWidth=5;" edge="1" parent="WIyWlLk6GJQsqaUBKTNV-1" source="ERIA8RnwAWH08utB1RJZ-83" target="ERIA8RnwAWH08utB1RJZ-93">
          <mxGeometry relative="1" as="geometry" />
        </mxCell>
        <mxCell id="ERIA8RnwAWH08utB1RJZ-83" value="Cadastrar: Data, Idade, Nome" style="rounded=0;whiteSpace=wrap;html=1;fontSize=13;strokeWidth=2;" vertex="1" parent="WIyWlLk6GJQsqaUBKTNV-1">
          <mxGeometry x="80" y="1460" width="320" height="100" as="geometry" />
        </mxCell>
        <mxCell id="ERIA8RnwAWH08utB1RJZ-89" style="edgeStyle=orthogonalEdgeStyle;rounded=0;orthogonalLoop=1;jettySize=auto;html=1;fontSize=13;strokeWidth=3;" edge="1" parent="WIyWlLk6GJQsqaUBKTNV-1" source="ERIA8RnwAWH08utB1RJZ-86" target="ERIA8RnwAWH08utB1RJZ-88">
          <mxGeometry relative="1" as="geometry" />
        </mxCell>
        <mxCell id="ERIA8RnwAWH08utB1RJZ-86" value="Digíte seu nome completo:" style="shape=display;whiteSpace=wrap;html=1;fontSize=13;strokeWidth=2;" vertex="1" parent="WIyWlLk6GJQsqaUBKTNV-1">
          <mxGeometry x="125" y="-120" width="220" height="75" as="geometry" />
        </mxCell>
        <mxCell id="ERIA8RnwAWH08utB1RJZ-90" style="edgeStyle=orthogonalEdgeStyle;rounded=0;orthogonalLoop=1;jettySize=auto;html=1;entryX=0.484;entryY=0.014;entryDx=0;entryDy=0;entryPerimeter=0;fontSize=13;strokeWidth=3;" edge="1" parent="WIyWlLk6GJQsqaUBKTNV-1" source="ERIA8RnwAWH08utB1RJZ-88" target="ERIA8RnwAWH08utB1RJZ-12">
          <mxGeometry relative="1" as="geometry" />
        </mxCell>
        <mxCell id="ERIA8RnwAWH08utB1RJZ-88" value="Nome" style="shape=manualInput;whiteSpace=wrap;html=1;fontSize=13;strokeWidth=2;" vertex="1" parent="WIyWlLk6GJQsqaUBKTNV-1">
          <mxGeometry x="160" y="-10" width="150" height="80" as="geometry" />
        </mxCell>
        <mxCell id="ERIA8RnwAWH08utB1RJZ-91" value="&lt;span style=&quot;color: rgb(0 , 0 , 0) ; font-family: &amp;#34;helvetica&amp;#34; ; font-size: 13px ; font-style: normal ; font-weight: 400 ; letter-spacing: normal ; text-align: center ; text-indent: 0px ; text-transform: none ; word-spacing: 0px ; background-color: rgb(255 , 255 , 255) ; display: inline ; float: none&quot;&gt;Sim&lt;/span&gt;" style="text;whiteSpace=wrap;html=1;fontSize=13;" vertex="1" parent="WIyWlLk6GJQsqaUBKTNV-1">
          <mxGeometry x="245" y="1390" width="50" height="30" as="geometry" />
        </mxCell>
        <mxCell id="ERIA8RnwAWH08utB1RJZ-98" value="" style="edgeStyle=orthogonalEdgeStyle;rounded=0;orthogonalLoop=1;jettySize=auto;html=1;fontSize=13;strokeWidth=5;" edge="1" parent="WIyWlLk6GJQsqaUBKTNV-1" source="ERIA8RnwAWH08utB1RJZ-93" target="ERIA8RnwAWH08utB1RJZ-97">
          <mxGeometry relative="1" as="geometry" />
        </mxCell>
        <mxCell id="ERIA8RnwAWH08utB1RJZ-93" value="&lt;p style=&quot;line-height: 1&quot;&gt;Cadastro Concluído com Sucesso.&lt;/p&gt;" style="shape=display;whiteSpace=wrap;html=1;fontSize=13;strokeWidth=2;" vertex="1" parent="WIyWlLk6GJQsqaUBKTNV-1">
          <mxGeometry x="85" y="1630" width="310" height="89" as="geometry" />
        </mxCell>
        <mxCell id="ERIA8RnwAWH08utB1RJZ-97" value="Fim" style="ellipse;whiteSpace=wrap;html=1;fontSize=13;strokeWidth=2;" vertex="1" parent="WIyWlLk6GJQsqaUBKTNV-1">
          <mxGeometry x="520" y="1612.25" width="170" height="124.5" as="geometry" />
        </mxCell>
      </root>
    </mxGraphModel>
  </diagram>
</mxfile>
